PathFileType	4	(X/Y/Z)	/Users/mathieubourgeois/Desktop/Analyse/Traitement/Sujet_05/Data/Transformed_Sujet_05_velo_80.trc
DataRate	CameraRate	NumFrames	NumMarkers	Units	OrigDataRate	OrigDataStartFrame	OrigNumFrames
120.000000	120.000000	4	36	mm	120.000000	0	1976
Frame#	Time	RFHD			RANE			STRN			LANI			LKNE			T10			RHUM			RWRB			C7			LFWT			LTOE			RTOE			LWRA			LBWT			RBWT			RFWT			LKNI			RKNI			RKNE			LANE			RANI			LHEE			RHEE			LHUM			LRAD			RRAD			RWRA			LWRB			LFHD			LBHD			RBHD			RSHO			LSHO			CLAV			LCAR			RCAR			
		X1	Y1	Z1	X2	Y2	Z2	X3	Y3	Z3	X4	Y4	Z4	X5	Y5	Z5	X6	Y6	Z6	X7	Y7	Z7	X8	Y8	Z8	X9	Y9	Z9	X10	Y10	Z10	X11	Y11	Z11	X12	Y12	Z12	X13	Y13	Z13	X14	Y14	Z14	X15	Y15	Z15	X16	Y16	Z16	X17	Y17	Z17	X18	Y18	Z18	X19	Y19	Z19	X20	Y20	Z20	X21	Y21	Z21	X22	Y22	Z22	X23	Y23	Z23	X24	Y24	Z24	X25	Y25	Z25	X26	Y26	Z26	X27	Y27	Z27	X28	Y28	Z28	X29	Y29	Z29	X30	Y30	Z30	X31	Y31	Z31	X32	Y32	Z32	X33	Y33	Z33	X34	Y34	Z34	X35	Y35	Z35	X36	Y36	Z36	

1	0	143.6691131591797	1363.799682617188	142.1974792480468	-258.9905090332031	607.8682250976562	189.8281860351562	-201.9062957763672	1151.270874023438	32.28938293457022	-231.8653259277344	263.7376098632812	-60.74761199951176	-215.4442138671875	659.2158813476562	-140.9074249267579	-323.591552734375	1355.72265625	37.44377517700183	22.11790084838865	1032.089721679688	200.7775268554687	242.195816040039	890.5421142578125	247.6295318603515	-96.7764892578125	1418.349243164062	43.05908966064443	-358.04248046875	1066.500732421875	-94.67856597900402	-98.21299743652342	141.1372528076172	-94.54079437255862	-133.9718475341797	454.1361389160156	158.8417510986328	274.7811584472656	931.0667724609375	-147.9213256835938	-529.4802856445312	1104.284545898438	-28.53155136108412	-521.0384521484375	1119.575805664062	106.3475952148436	-363.4164428710938	1084.299438476562	150.0242919921874	-212.2529754638672	625.2920532226562	-33.93868255615241	-35.40929031372072	886.1393432617188	115.867202758789	-46.52115249633792	924.4026489257812	221.8149108886718	-268.29248046875	270.4580383300781	-136.157943725586	-224.2787170410156	596.5350341796875	109.783103942871	-320.11376953125	241.0986328125	-91.60913085937506	-323.2267456054688	607.8740234375	143.6842346191406	20.78860473632814	1047.888427734375	-148.3832092285157	72.11908721923831	1078.073120117188	-187.0465087890626	62.41178131103513	1063.561401367188	252.7609252929687	273.4834594726562	934.1482543945312	195.1443939208984	239.596176147461	883.2860107421875	-181.5694274902344	169.5360107421875	1363.124755859375	-2.59020280838019	47.97605895996094	1453.37255859375	-30.69413566589364	18.47851181030272	1478.4306640625	100.3767166137694	-35.03487777709963	1322.816040039062	190.3441162109374	-57.93670272827147	1335.786743164062	-110.4774246215821	-82.54862976074219	1274.937744140625	41.74165344238273	316.4603881835938	925.8717041015625	-225.6555633544922	320.0994567871093	928.6140747070312	283.7120361328125	
2	0.008333333333333333	144.0314331054687	1363.968627929688	142.1751708984374	-248.854965209961	607.1829223632812	190.2281341552734	-201.4836120605469	1151.318481445312	32.53381347656241	-242.3454284667969	264.4323120117188	-60.86081314086918	-216.9802093505859	659.0353393554688	-141.2385406494141	-323.200439453125	1355.817749023438	38.10676956176745	22.20912361145017	1032.1337890625	201.0550079345703	242.0343780517578	891.4712524414062	248.0817565917968	-96.34745788574219	1418.359741210938	43.12668228149404	-358.4334716796875	1066.864624023438	-94.5670623779298	-112.0337905883789	139.3856658935547	-94.99198913574222	-117.8391571044922	455.7132873535156	158.0828552246093	274.8089294433594	931.1149291992188	-147.7926940917969	-529.6470336914062	1104.853149414062	-27.59283256530775	-520.8053588867188	1120.10107421875	107.2624969482421	-363.6852416992188	1085.015258789062	150.389678955078	-213.4523468017578	625.2692260742188	-34.46695327758795	-33.59142303466798	891.077392578125	115.0075759887695	-45.38517761230472	929.0895385742188	220.570571899414	-278.5513610839844	271.7766418457031	-136.2086791992188	-215.1358489990234	597.1944580078125	109.3497238159179	-330.9806213378906	243.3710784912109	-91.53381347656256	-313.206298828125	605.5961303710938	144.1976318359374	20.73966407775881	1047.840942382812	-148.1705017089844	72.01029968261722	1077.989501953125	-186.9969635009766	62.56423187255857	1063.571166992188	253.0313568115234	273.5397033691406	934.0741577148438	195.3245544433593	238.1499328613282	883.894775390625	-183.4820098876953	169.9164428710938	1363.151123046875	-2.6061699390412	48.37781143188477	1453.381225585938	-30.81310081481942	18.87615776062011	1478.564331054688	100.2303390502929	-34.52064895629885	1323.04638671875	190.4248657226562	-57.8914222717285	1335.773071289062	-110.3555374145509	-82.20737457275391	1274.946411132812	41.81869125366202	316.486328125	925.881103515625	-225.5133514404297	320.1566162109374	928.5117797851562	283.9179382324219	
3	0.01666666666666667	144.3926239013672	1364.101806640625	142.0191650390624	-238.9401397705078	605.5242309570312	190.6492767333984	-201.0738067626953	1151.36376953125	32.75666427612295	-252.2493591308594	266.0940246582031	-60.98627853393559	-217.5851593017578	659.4473876953125	-141.7244567871094	-322.8517150878906	1355.926147460938	38.7845764160155	22.32295608520505	1032.187133789062	201.2844696044921	242.3012542724609	890.472412109375	248.0000915527343	-95.98766326904297	1418.315063476562	43.14125061035146	-358.9239807128906	1067.284912109375	-94.40782165527355	-124.9858779907226	138.2547149658203	-95.13006591796878	-104.0682067871094	457.3233032226562	157.9530792236328	274.8573913574219	931.1494140625	-147.6547241210938	-529.9421997070312	1105.427856445312	-26.59270286560072	-520.6802368164062	1120.583251953125	108.1407241821288	-363.8927612304688	1085.60009765625	150.660186767578	-214.1783142089844	625.767822265625	-35.01958084106452	-32.2442092895508	896.070068359375	114.2761917114257	-43.94360733032229	933.6525268554688	220.4293212890624	-288.6634216308594	274.0101013183594	-136.2780456542969	-205.3234710693359	596.6217041015625	109.5672302246093	-342.0677795410156	247.3209991455078	-92.76367187500006	-303.3240051269531	602.249267578125	144.6472930908203	20.70717048645021	1047.784423828125	-148.0570983886719	71.53587341308597	1078.26025390625	-186.3155364990235	62.7347717285156	1063.574096679688	253.2844848632812	273.6174011230469	934.0210571289062	195.4993286132812	238.1943817138672	883.9248046875	-183.3430480957032	170.2091217041016	1363.130249023438	-2.752983808517519	48.65945434570313	1453.301391601562	-31.0149402618409	19.23353576660155	1478.641235351562	99.98644256591788	-33.95575332641604	1323.2607421875	190.4803466796874	-57.88858413696288	1335.67431640625	-110.269989013672	-81.89542388916016	1274.913818359375	41.87234115600577	316.5345153808594	925.8726196289062	-225.3603210449219	320.2378540039062	928.3941650390625	284.085205078125	
4	0.025	144.7061920166015	1364.202514648438	141.7255859374999	-229.1053771972657	603.0026245117188	191.2012176513671	-200.9478759765625	1151.343994140625	33.05321502685538	-262.2496032714844	268.8177490234375	-61.25619888305669	-217.3140106201172	660.4150390625	-142.2749176025391	-322.6034851074219	1356.0517578125	39.43572235107409	22.45743560791013	1032.2216796875	201.5471496582031	242.4365234375	890.3692016601562	248.1482543945312	-95.70735931396484	1418.241455078125	43.07637023925771	-359.4251708984375	1067.752319335938	-94.21974182128918	-137.8976745605469	138.0547027587891	-95.20734405517581	-90.41056060791017	458.2466735839844	158.0238037109375	274.8946533203125	931.1729125976562	-147.5474243164063	-530.2833251953125	1105.780639648438	-25.74081230163587	-520.71240234375	1121.011962890625	108.9716110229491	-364.2427062988281	1086.19921875	151.161895751953	-215.9073486328125	626.794677734375	-35.93195724487311	-30.93220710754396	898.970458984375	113.9259948730468	-43.49726867675784	936.421875	220.1465606689453	-298.4801330566406	276.9308471679688	-136.4477233886719	-196.5915222167969	594.9915771484375	109.5342788696288	-352.510009765625	251.630859375	-92.56714630126959	-293.6443786621094	597.810302734375	145.2415313720703	20.66965675354006	1047.687377929688	-147.9461212158204	71.28457641601565	1077.717407226562	-187.3446655273438	62.807746887207	1064.147705078125	253.6773681640624	274.6318969726562	933.8322143554688	195.7525939941406	239.8067779541016	883.3017578125	-181.044921875	170.3982238769531	1363.056518554688	-3.059911012649599	48.81431198120118	1453.186889648438	-31.33983230590828	18.44374656677245	1478.602172851562	99.83967590332023	-33.39623641967776	1323.416259765625	190.4146118164062	-58.0597686767578	1335.486694335938	-110.4040451049806	-81.70796203613281	1274.851196289062	41.91621017456046	316.5769958496094	925.8587036132812	-225.2547607421875	320.3412475585937	928.301025390625	284.2264709472656	
